# xmcd
#
# Track frame offsets:
#	182
#	12370
#	26565
#	38530
#	51020
#	65135
#	86920
#	100402
#	110290
#	122717
#	134470
#	149397
#	162667
#	176117
#	193620
#	207247
#	220047
#	231197
#
# Disc length: 3225 seconds
#
# Revision: 1
# Processed by: cddbd v1.5.2PL0 Copyright (c) Steve Scherf et al.
# Submitted via: EZCDAudioConverter 4.0.2.1
#
DISCID=0a0c9712
DTITLE=Tom Astor - Golden Stars
DYEAR=1900
DGENRE=Country
TTITLE0=Hallo, guten Morgen Deutschland
TTITLE1=International Airport
TTITLE2=Freunde
TTITLE3=Junge zieh´ die Bremse an
TTITLE4=Die fünfziger Jahre sterben nie
TTITLE5=Kameraden der Straße
TTITLE6=Alter Freund, überhol dich nicht selber
TTITLE7=Sicht weg - Gas weg!
TTITLE8=Du bist mein bester Freund
TTITLE9=Ein unbekannter Stuntmann
TTITLE10=Sonntagmorgen
TTITLE11=Partner fahr rechts
TTITLE12=Denn der Sieger, der heißt Heimweh
TTITLE13=Mein Freund Charly
TTITLE14=Der kleine Trucker
TTITLE15=Noch 100 Kilometer
TTITLE16=Panamerican Highway
TTITLE17=Ja, das sind Stunden (die vergißt man nie)
EXTD=
EXTT0=
EXTT1=
EXTT2=
EXTT3=
EXTT4=
EXTT5=
EXTT6=
EXTT7=
EXTT8=
EXTT9=
EXTT10=
EXTT11=
EXTT12=
EXTT13=
EXTT14=
EXTT15=
EXTT16=
EXTT17=
PLAYORDER=
